<svg width="32" height="32" viewBox="0 0 32 32" fill="none" xmlns="http://www.w3.org/2000/svg">
  <rect width="32" height="32" rx="7" fill="#166534"/>
  <path d="M16 6C16 6 8 10 8 18C8 22.4183 11.5817 26 16 26C20.4183 26 24 22.4183 24 18C24 10 16 6 16 6Z" fill="#22c55e" opacity="0.3"/>
  <path d="M16 8C16 8 10 11.5 10 18C10 21.3137 12.6863 24 16 24C19.3137 24 22 21.3137 22 18C22 11.5 16 8 16 8Z" fill="#4ade80"/>
  <path d="M16 10L16 22" stroke="#166534" stroke-width="1.5" stroke-linecap="round"/>
  <path d="M16 14L13 17" stroke="#166534" stroke-width="1.2" stroke-linecap="round"/>
  <path d="M16 16L19 19" stroke="#166534" stroke-width="1.2" stroke-linecap="round"/>
  <circle cx="22" cy="10" r="5" fill="white" stroke="#166534" stroke-width="1.5"/>
  <circle cx="22" cy="10" r="2.5" fill="#166534"/>
  <circle cx="22.8" cy="9.2" r="0.8" fill="white"/>
</svg>
